<mxfile host="app.diagrams.net" agent="Mozilla/5.0 (X11; Linux x86_64) AppleWebKit/537.36 (KHTML, like Gecko) Chrome/138.0.0.0 YaBrowser/25.8.0.0 Safari/537.36" version="28.2.4">
  <diagram name="Страница — 1" id="VVFLxj3z1F1GEr8hPZjJ">
    <mxGraphModel dx="1532" dy="864" grid="1" gridSize="10" guides="1" tooltips="1" connect="1" arrows="1" fold="1" page="1" pageScale="1" pageWidth="827" pageHeight="1169" math="0" shadow="0">
      <root>
        <mxCell id="0" />
        <mxCell id="1" parent="0" />
        <mxCell id="9qPh1k6vbmJMXDvl4d07-4" style="edgeStyle=orthogonalEdgeStyle;rounded=0;orthogonalLoop=1;jettySize=auto;html=1;entryX=0;entryY=0.5;entryDx=0;entryDy=0;" edge="1" parent="1" source="9qPh1k6vbmJMXDvl4d07-1" target="9qPh1k6vbmJMXDvl4d07-2">
          <mxGeometry relative="1" as="geometry" />
        </mxCell>
        <mxCell id="9qPh1k6vbmJMXDvl4d07-5" value="Производит оплату" style="edgeLabel;html=1;align=center;verticalAlign=middle;resizable=0;points=[];" vertex="1" connectable="0" parent="9qPh1k6vbmJMXDvl4d07-4">
          <mxGeometry x="0.0703" relative="1" as="geometry">
            <mxPoint as="offset" />
          </mxGeometry>
        </mxCell>
        <mxCell id="9qPh1k6vbmJMXDvl4d07-1" value="Пациент" style="rounded=0;whiteSpace=wrap;html=1;" vertex="1" parent="1">
          <mxGeometry x="10" y="80" width="120" height="60" as="geometry" />
        </mxCell>
        <mxCell id="9qPh1k6vbmJMXDvl4d07-7" style="edgeStyle=orthogonalEdgeStyle;rounded=0;orthogonalLoop=1;jettySize=auto;html=1;entryX=0;entryY=0.5;entryDx=0;entryDy=0;" edge="1" parent="1" target="9qPh1k6vbmJMXDvl4d07-6">
          <mxGeometry relative="1" as="geometry">
            <mxPoint x="400" y="110" as="sourcePoint" />
            <Array as="points">
              <mxPoint x="634" y="110" />
            </Array>
          </mxGeometry>
        </mxCell>
        <mxCell id="9qPh1k6vbmJMXDvl4d07-8" value="данные пациента PII" style="edgeLabel;html=1;align=center;verticalAlign=middle;resizable=0;points=[];" vertex="1" connectable="0" parent="9qPh1k6vbmJMXDvl4d07-7">
          <mxGeometry x="0.251" y="3" relative="1" as="geometry">
            <mxPoint as="offset" />
          </mxGeometry>
        </mxCell>
        <mxCell id="9qPh1k6vbmJMXDvl4d07-27" style="edgeStyle=orthogonalEdgeStyle;rounded=0;orthogonalLoop=1;jettySize=auto;html=1;entryX=0.5;entryY=0;entryDx=0;entryDy=0;" edge="1" parent="1" source="9qPh1k6vbmJMXDvl4d07-2" target="9qPh1k6vbmJMXDvl4d07-25">
          <mxGeometry relative="1" as="geometry" />
        </mxCell>
        <mxCell id="9qPh1k6vbmJMXDvl4d07-32" value="выбирает наименование&lt;div&gt;платежа и вводит сумму&lt;/div&gt;" style="edgeLabel;html=1;align=center;verticalAlign=middle;resizable=0;points=[];" vertex="1" connectable="0" parent="9qPh1k6vbmJMXDvl4d07-27">
          <mxGeometry x="-0.0559" y="-1" relative="1" as="geometry">
            <mxPoint as="offset" />
          </mxGeometry>
        </mxCell>
        <mxCell id="9qPh1k6vbmJMXDvl4d07-28" style="edgeStyle=orthogonalEdgeStyle;rounded=0;orthogonalLoop=1;jettySize=auto;html=1;entryX=0;entryY=0.5;entryDx=0;entryDy=0;" edge="1" parent="1" source="9qPh1k6vbmJMXDvl4d07-2" target="9qPh1k6vbmJMXDvl4d07-23">
          <mxGeometry relative="1" as="geometry">
            <Array as="points">
              <mxPoint x="450" y="110" />
              <mxPoint x="450" y="270" />
            </Array>
          </mxGeometry>
        </mxCell>
        <mxCell id="9qPh1k6vbmJMXDvl4d07-2" value="Кассир" style="rounded=0;whiteSpace=wrap;html=1;" vertex="1" parent="1">
          <mxGeometry x="270" y="80" width="120" height="60" as="geometry" />
        </mxCell>
        <mxCell id="9qPh1k6vbmJMXDvl4d07-6" value="&lt;div&gt;журнал приема&lt;/div&gt;excel file на общем диске" style="rounded=0;whiteSpace=wrap;html=1;" vertex="1" parent="1">
          <mxGeometry x="634" y="80" width="120" height="60" as="geometry" />
        </mxCell>
        <mxCell id="9qPh1k6vbmJMXDvl4d07-23" value="&lt;div&gt;&lt;span style=&quot;background-color: transparent; color: light-dark(rgb(0, 0, 0), rgb(255, 255, 255));&quot;&gt;excel файл с платежами&lt;/span&gt;&lt;/div&gt;&lt;div&gt;&lt;span style=&quot;background-color: transparent; color: light-dark(rgb(0, 0, 0), rgb(255, 255, 255));&quot;&gt;на общем диске&lt;/span&gt;&lt;/div&gt;" style="rounded=0;whiteSpace=wrap;html=1;" vertex="1" parent="1">
          <mxGeometry x="634" y="240" width="120" height="60" as="geometry" />
        </mxCell>
        <mxCell id="9qPh1k6vbmJMXDvl4d07-24" value="&lt;div&gt;&lt;span style=&quot;background-color: transparent; color: light-dark(rgb(0, 0, 0), rgb(255, 255, 255));&quot;&gt;1С Бухгалтерия с платежами&lt;/span&gt;&lt;/div&gt;&lt;div&gt;&lt;span style=&quot;background-color: transparent; color: light-dark(rgb(0, 0, 0), rgb(255, 255, 255));&quot;&gt;на общем диске&lt;/span&gt;&lt;/div&gt;" style="rounded=0;whiteSpace=wrap;html=1;" vertex="1" parent="1">
          <mxGeometry x="634" y="310" width="120" height="60" as="geometry" />
        </mxCell>
        <mxCell id="9qPh1k6vbmJMXDvl4d07-29" style="edgeStyle=orthogonalEdgeStyle;rounded=0;orthogonalLoop=1;jettySize=auto;html=1;entryX=0;entryY=0.5;entryDx=0;entryDy=0;" edge="1" parent="1" source="9qPh1k6vbmJMXDvl4d07-25" target="9qPh1k6vbmJMXDvl4d07-24">
          <mxGeometry relative="1" as="geometry">
            <Array as="points">
              <mxPoint x="330" y="340" />
            </Array>
          </mxGeometry>
        </mxCell>
        <mxCell id="9qPh1k6vbmJMXDvl4d07-33" value="информация о принятии денежных средств" style="edgeLabel;html=1;align=center;verticalAlign=middle;resizable=0;points=[];" vertex="1" connectable="0" parent="9qPh1k6vbmJMXDvl4d07-29">
          <mxGeometry x="-0.0502" y="1" relative="1" as="geometry">
            <mxPoint as="offset" />
          </mxGeometry>
        </mxCell>
        <mxCell id="9qPh1k6vbmJMXDvl4d07-25" value="ККМ" style="rounded=0;whiteSpace=wrap;html=1;" vertex="1" parent="1">
          <mxGeometry x="270" y="220" width="120" height="60" as="geometry" />
        </mxCell>
      </root>
    </mxGraphModel>
  </diagram>
</mxfile>
